<svg width="31" height="31" viewBox="0 0 31 31" fill="none" xmlns="http://www.w3.org/2000/svg">
<path d="M18.0833 2.58334H7.74996C7.06482 2.58334 6.40774 2.85552 5.92327 3.33998C5.4388 3.82445 5.16663 4.48153 5.16663 5.16668V25.8333C5.16663 26.5185 5.4388 27.1756 5.92327 27.66C6.40774 28.1445 7.06482 28.4167 7.74996 28.4167H23.25C23.9351 28.4167 24.5922 28.1445 25.0767 27.66C25.5611 27.1756 25.8333 26.5185 25.8333 25.8333V10.3333M18.0833 2.58334L25.8333 10.3333M18.0833 2.58334V10.3333H25.8333M20.6666 16.7917H10.3333M20.6666 21.9583H10.3333M12.9166 11.625H10.3333" stroke="white" stroke-width="2" stroke-linecap="round" stroke-linejoin="round"/>
</svg>
