<svg width="31" height="31" viewBox="0 0 31 31" fill="none" xmlns="http://www.w3.org/2000/svg">
<path d="M27.125 2.58331L24.5417 5.16665M24.5417 5.16665L28.4167 9.04165L23.8958 13.5625L20.0208 9.68748M24.5417 5.16665L20.0208 9.68748M14.7121 14.9962C15.379 15.6543 15.9092 16.4378 16.2721 17.3016C16.635 18.1654 16.8234 19.0924 16.8266 20.0294C16.8297 20.9663 16.6475 21.8946 16.2904 22.7608C15.9333 23.627 15.4084 24.4141 14.7458 25.0766C14.0833 25.7391 13.2963 26.264 12.4301 26.6211C11.5639 26.9782 10.6356 27.1604 9.69864 27.1573C8.76171 27.1542 7.83465 26.9657 6.97084 26.6028C6.10704 26.2399 5.32355 25.7098 4.66549 25.0428C3.37141 23.703 2.65535 21.9084 2.67153 20.0457C2.68772 18.183 3.43486 16.4012 4.75203 15.0841C6.0692 13.7669 7.85101 13.0198 9.7137 13.0036C11.5764 12.9874 13.3709 13.7034 14.7108 14.9975L14.7121 14.9962ZM14.7121 14.9962L20.0208 9.68748" stroke="white" stroke-width="2" stroke-linecap="round" stroke-linejoin="round"/>
</svg>
